<svg xmlns="http://www.w3.org/2000/svg" viewBox="0 0 1278 300" width="1278" height="300"><title>methodtrace</title><g transform="translate(0,-6) scale(0.62) translate(-19,-11)"><path d="M124 388 H214 V280 H304 V172 H340" fill="none" stroke="#1B2533" stroke-width="32" stroke-linecap="round" stroke-linejoin="round"/><circle cx="388" cy="172" r="44" fill="none" stroke="#B8741A" stroke-width="24"/></g><path d="M339.375 208.0V126.115234375H359.736328125L360.615234375 142.0087890625Q363.9111328125 133.0732421875 370.283203125 128.9716796875Q376.6552734375 124.8701171875 383.9794921875 124.8701171875Q399.5068359375 124.8701171875 405.0732421875 143.25390625Q408.515625 133.8056640625 415.72998046875 129.337890625Q422.9443359375 124.8701171875 431.3671875 124.8701171875Q442.646484375 124.8701171875 450.08056640625 132.15771484375Q457.5146484375 139.4453125 457.5146484375 152.775390625V208.0H435.46875V156.9501953125Q435.46875 150.0654296875 431.7333984375 146.65966796875Q427.998046875 143.25390625 422.5048828125 143.25390625Q416.279296875 143.25390625 412.65380859375 147.208984375Q409.0283203125 151.1640625 409.0283203125 157.609375V208.0H387.7880859375V156.3642578125Q387.7880859375 150.3583984375 384.23583984375 146.80615234375Q380.68359375 143.25390625 375.0439453125 143.25390625Q369.2578125 143.25390625 365.302734375 147.17236328125Q361.34765625 151.0908203125 361.34765625 158.48828125V208.0ZM513.251953125 209.611328125Q500.7275390625 209.611328125 491.6455078125 204.484375Q482.5634765625 199.357421875 477.69287109375 189.9091796875Q472.822265625 180.4609375 472.822265625 167.4970703125Q472.822265625 154.826171875 477.69287109375 145.3046875Q482.5634765625 135.783203125 491.38916015625 130.4365234375Q500.21484375 125.08984375 512.1533203125 125.08984375Q522.8466796875 125.08984375 531.5625 129.630859375Q540.2783203125 134.171875 545.44189453125 143.400390625Q550.60546875 152.62890625 550.60546875 166.6181640625V172.7705078125H494.5751953125Q494.94140625 182.8046875 500.1416015625 187.931640625Q505.341796875 193.05859375 513.6181640625 193.05859375Q519.404296875 193.05859375 523.54248046875 190.60498046875Q527.6806640625 188.1513671875 529.4384765625 183.390625L549.3603515625 187.1259765625Q546.357421875 197.306640625 536.94580078125 203.458984375Q527.5341796875 209.611328125 513.251953125 209.611328125ZM494.7216796875 159.0009765625H529.4384765625Q528.6328125 151.017578125 524.3115234375 146.330078125Q519.990234375 141.642578125 512.373046875 141.642578125Q504.462890625 141.642578125 499.921875 146.51318359375Q495.380859375 151.3837890625 494.7216796875 159.0009765625ZM606.26953125 126.115234375V142.8876953125H590.9619140625V184.0498046875Q590.9619140625 191.6669921875 598.4326171875 191.6669921875Q599.677734375 191.6669921875 601.91162109375 191.33740234375Q604.1455078125 191.0078125 605.390625 190.71484375L608.5400390625 207.1943359375Q604.8779296875 208.29296875 601.25244140625 208.732421875Q597.626953125 209.171875 594.3310546875 209.171875Q582.0263671875 209.171875 575.5078125 203.20263671875Q568.9892578125 197.2333984375 568.9892578125 185.9541015625V142.8876953125H557.7099609375V126.115234375H568.9892578125V106.6328125H590.9619140625V126.115234375ZM642.5244140625 160.6123046875V208.0H620.5517578125V98.869140625H642.0849609375V141.7890625Q645.673828125 133.8056640625 651.826171875 129.44775390625Q657.978515625 125.08984375 667.060546875 125.08984375Q679.8046875 125.08984375 687.53173828125 133.29296875Q695.2587890625 141.49609375 695.2587890625 155.9248046875V208.0H673.212890625V159.7333984375Q673.212890625 152.1162109375 669.29443359375 147.794921875Q665.3759765625 143.4736328125 658.41796875 143.4736328125Q651.38671875 143.4736328125 646.95556640625 147.97802734375Q642.5244140625 152.482421875 642.5244140625 160.6123046875ZM750.556640625 209.611328125Q738.251953125 209.611328125 729.2431640625 204.30126953125Q720.234375 198.9912109375 715.36376953125 189.50634765625Q710.4931640625 180.021484375 710.4931640625 167.423828125Q710.4931640625 154.7529296875 715.36376953125 145.2314453125Q720.234375 135.7099609375 729.2431640625 130.39990234375Q738.251953125 125.08984375 750.556640625 125.08984375Q762.861328125 125.08984375 771.8701171875 130.39990234375Q780.87890625 135.7099609375 785.74951171875 145.2314453125Q790.6201171875 154.7529296875 790.6201171875 167.423828125Q790.6201171875 180.021484375 785.74951171875 189.50634765625Q780.87890625 198.9912109375 771.8701171875 204.30126953125Q762.861328125 209.611328125 750.556640625 209.611328125ZM750.556640625 192.326171875Q759.345703125 192.326171875 763.8134765625 185.2216796875Q768.28125 178.1171875 768.28125 167.3505859375Q768.28125 156.5107421875 763.8134765625 149.44287109375Q759.345703125 142.375 750.556640625 142.375Q741.767578125 142.375 737.33642578125 149.44287109375Q732.9052734375 156.5107421875 732.9052734375 167.3505859375Q732.9052734375 178.1171875 737.33642578125 185.2216796875Q741.767578125 192.326171875 750.556640625 192.326171875ZM835.8837890625 209.3916015625Q826.435546875 209.3916015625 818.8916015625 204.52099609375Q811.34765625 199.650390625 806.91650390625 190.23876953125Q802.4853515625 180.8271484375 802.4853515625 167.2041015625Q802.4853515625 153.21484375 807.0263671875 143.83984375Q811.5673828125 134.46484375 819.111328125 129.77734375Q826.6552734375 125.08984375 835.7373046875 125.08984375Q842.6953125 125.08984375 847.3095703125 127.43359375Q851.923828125 129.77734375 854.74365234375 133.2197265625Q857.5634765625 136.662109375 859.0283203125 139.884765625H859.7607421875V98.869140625H881.7333984375V208.0H860.126953125V194.8896484375H859.0283203125Q857.490234375 198.185546875 854.6337890625 201.51806640625Q851.77734375 204.8505859375 847.1630859375 207.12109375Q842.548828125 209.3916015625 835.8837890625 209.3916015625ZM842.6220703125 191.740234375Q850.9716796875 191.740234375 855.5859375 185.001953125Q860.2001953125 178.263671875 860.2001953125 167.130859375Q860.2001953125 155.998046875 855.62255859375 149.3330078125Q851.044921875 142.66796875 842.6220703125 142.66796875Q833.9794921875 142.66796875 829.51171875 149.51611328125Q825.0439453125 156.3642578125 825.0439453125 167.130859375Q825.0439453125 177.970703125 829.54833984375 184.85546875Q834.052734375 191.740234375 842.6220703125 191.740234375Z" fill="#1B2533"/><path d="M938.9072265625 126.115234375V137.39453125H922.0615234375V186.759765625Q922.0615234375 192.2529296875 924.29541015625 194.77978515625Q926.529296875 197.306640625 931.7294921875 197.306640625Q932.974609375 197.306640625 934.91552734375 197.013671875Q936.8564453125 196.720703125 938.4677734375 196.427734375L941.177734375 207.560546875Q939.126953125 208.29296875 936.52685546875 208.6591796875Q933.9267578125 209.025390625 931.36328125 209.025390625Q920.7431640625 209.025390625 914.810546875 203.42236328125Q908.8779296875 197.8193359375 908.8779296875 187.78515625V137.39453125H896.5732421875V126.115234375H908.8779296875V106.6328125H922.0615234375V126.115234375ZM955.7529296875 208.0V126.115234375H968.4970703125V138.712890625H969.3759765625Q971.646484375 132.4873046875 977.46923828125 128.71533203125Q983.2919921875 124.943359375 990.6162109375 124.943359375Q992.0810546875 124.943359375 994.09521484375 125.0166015625Q996.109375 125.08984375 997.28125 125.1630859375V138.419921875Q996.6953125 138.2734375 994.3515625 137.98046875Q992.0078125 137.6875 989.37109375 137.6875Q980.5087890625 137.6875 974.72265625 143.07080078125Q968.9365234375 148.4541015625 968.9365234375 156.73046875V208.0ZM1035.1474609375 209.904296875Q1027.3837890625 209.904296875 1021.04833984375 206.974609375Q1014.712890625 204.044921875 1010.9775390625 198.4052734375Q1007.2421875 192.765625 1007.2421875 184.708984375Q1007.2421875 177.677734375 1010.025390625 173.283203125Q1012.80859375 168.888671875 1017.45947265625 166.36181640625Q1022.1103515625 163.8349609375 1027.75 162.58984375Q1033.3896484375 161.3447265625 1039.1025390625 160.6123046875Q1046.4267578125 159.66015625 1051.041015625 159.1474609375Q1055.6552734375 158.634765625 1057.88916015625 157.3896484375Q1060.123046875 156.14453125 1060.123046875 153.1416015625V152.7021484375Q1060.123046875 145.0849609375 1055.8017578125 140.87353515625Q1051.48046875 136.662109375 1042.984375 136.662109375Q1034.1220703125 136.662109375 1029.1416015625 140.50732421875Q1024.1611328125 144.3525390625 1022.2568359375 148.673828125L1009.5859375 144.4990234375Q1012.7353515625 137.0283203125 1018.08203125 132.81689453125Q1023.4287109375 128.60546875 1029.8740234375 126.84765625Q1036.3193359375 125.08984375 1042.6181640625 125.08984375Q1046.7197265625 125.08984375 1051.95654296875 126.07861328125Q1057.193359375 127.0673828125 1062.06396484375 129.9970703125Q1066.9345703125 132.9267578125 1070.12060546875 138.67626953125Q1073.306640625 144.42578125 1073.306640625 154.0205078125V208.0H1060.3427734375V196.8671875H1059.4638671875Q1058.072265625 199.7236328125 1054.99609375 202.76318359375Q1051.919921875 205.802734375 1047.0126953125 207.853515625Q1042.10546875 209.904296875 1035.1474609375 209.904296875ZM1037.41796875 198.2587890625Q1044.7421875 198.2587890625 1049.7958984375 195.40234375Q1054.849609375 192.5458984375 1057.486328125 187.96826171875Q1060.123046875 183.390625 1060.123046875 178.41015625V167.0576171875Q1059.3173828125 168.009765625 1056.607421875 168.77880859375Q1053.8974609375 169.5478515625 1050.41845703125 170.1337890625Q1046.939453125 170.7197265625 1043.68017578125 171.12255859375Q1040.4208984375 171.525390625 1038.5166015625 171.7451171875Q1033.755859375 172.3310546875 1029.61767578125 173.75927734375Q1025.4794921875 175.1875 1022.9892578125 177.93408203125Q1020.4990234375 180.6806640625 1020.4990234375 185.3681640625Q1020.4990234375 191.740234375 1025.29638671875 194.99951171875Q1030.09375 198.2587890625 1037.41796875 198.2587890625ZM1129.7763671875 209.7578125Q1118.6435546875 209.7578125 1110.25732421875 204.484375Q1101.87109375 199.2109375 1097.18359375 189.689453125Q1092.49609375 180.16796875 1092.49609375 167.5703125Q1092.49609375 154.7529296875 1097.18359375 145.19482421875Q1101.87109375 135.63671875 1110.25732421875 130.36328125Q1118.6435546875 125.08984375 1129.7763671875 125.08984375Q1141.6416015625 125.08984375 1150.61376953125 131.05908203125Q1159.5859375 137.0283203125 1162.955078125 147.7216796875L1150.2841796875 151.310546875Q1148.453125 145.01171875 1143.14306640625 140.94677734375Q1137.8330078125 136.8818359375 1129.7763671875 136.8818359375Q1121.5732421875 136.8818359375 1116.2998046875 141.16650390625Q1111.0263671875 145.451171875 1108.462890625 152.4091796875Q1105.8994140625 159.3671875 1105.8994140625 167.5703125Q1105.8994140625 175.626953125 1108.462890625 182.54833984375Q1111.0263671875 189.4697265625 1116.2998046875 193.7177734375Q1121.5732421875 197.9658203125 1129.7763671875 197.9658203125Q1138.052734375 197.9658203125 1143.43603515625 193.75439453125Q1148.8193359375 189.54296875 1150.650390625 182.8779296875L1163.248046875 186.466796875Q1159.9521484375 197.3798828125 1150.8701171875 203.56884765625Q1141.7880859375 209.7578125 1129.7763671875 209.7578125ZM1216.568359375 209.7578125Q1204.703125 209.7578125 1196.09716796875 204.484375Q1187.4912109375 199.2109375 1182.84033203125 189.7626953125Q1178.189453125 180.314453125 1178.189453125 167.716796875Q1178.189453125 155.119140625 1182.73046875 145.5244140625Q1187.271484375 135.9296875 1195.58447265625 130.509765625Q1203.8974609375 125.08984375 1215.0302734375 125.08984375Q1221.548828125 125.08984375 1227.88427734375 127.25048828125Q1234.2197265625 129.4111328125 1239.38330078125 134.20849609375Q1244.546875 139.005859375 1247.623046875 146.8427734375Q1250.69921875 154.6796875 1250.69921875 166.0322265625V171.525390625H1191.51953125Q1192.0322265625 184.3427734375 1198.88037109375 191.19091796875Q1205.728515625 198.0390625 1216.6416015625 198.0390625Q1223.892578125 198.0390625 1229.12939453125 194.85302734375Q1234.3662109375 191.6669921875 1236.63671875 185.44140625L1249.380859375 188.95703125Q1246.5244140625 198.2587890625 1237.84521484375 204.00830078125Q1229.166015625 209.7578125 1216.568359375 209.7578125ZM1191.5927734375 160.392578125H1237.2958984375Q1236.34375 149.9189453125 1230.74072265625 143.36376953125Q1225.1376953125 136.80859375 1215.0302734375 136.80859375Q1207.9990234375 136.80859375 1202.90869140625 140.1044921875Q1197.818359375 143.400390625 1194.888671875 148.7470703125Q1191.958984375 154.09375 1191.5927734375 160.392578125Z" fill="#B8741A"/></svg>